<?xml version="1.0" standalone="no"?>
<!DOCTYPE svg PUBLIC "-//W3C//DTD SVG 20010904//EN"
 "http://www.w3.org/TR/2001/REC-SVG-20010904/DTD/svg10.dtd">
<svg version="1.0" xmlns="http://www.w3.org/2000/svg"
 width="469.000000pt" height="564.000000pt" viewBox="0 0 469.000000 564.000000"
 preserveAspectRatio="xMidYMid meet">

<g transform="translate(0.000000,564.000000) scale(0.100000,-0.100000)"
fill="#000000" stroke="none">
<path d="M2216 5564 c-325 -79 -503 -439 -365 -742 16 -36 28 -66 26 -68 -1
-2 -43 -17 -92 -34 -661 -231 -1113 -814 -1174 -1516 -6 -65 -11 -352 -11
-636 l0 -518 1740 0 1740 0 0 488 c0 673 -13 817 -96 1071 -171 524 -597 946
-1124 1116 -30 10 -57 19 -59 21 -1 1 9 27 23 57 34 74 48 137 48 232 0 155
-47 269 -157 381 -135 137 -319 192 -499 148z m221 -329 c51 -26 91 -72 112
-128 31 -81 -10 -198 -86 -251 -87 -61 -219 -44 -288 36 -44 52 -58 97 -53
164 13 156 175 248 315 179z"/>
<path d="M417 1849 c-62 -15 -137 -58 -194 -112 -180 -170 -237 -478 -139
-746 45 -122 149 -241 256 -294 l65 -32 1910 -3 c2093 -2 1958 -6 2062 55 61
35 152 139 191 216 99 199 97 458 -3 658 -50 97 -140 188 -232 232 l-68 32
-1905 2 c-1086 0 -1921 -3 -1943 -8z"/>
<path d="M1760 470 c0 -26 42 -116 85 -179 132 -200 395 -302 634 -246 163 39
328 167 394 307 19 40 38 85 41 101 l6 27 -580 0 c-376 0 -580 -3 -580 -10z"/>
</g>
</svg>
