<?xml version="1.0" standalone="no"?>
<!DOCTYPE svg PUBLIC "-//W3C//DTD SVG 20010904//EN"
 "http://www.w3.org/TR/2001/REC-SVG-20010904/DTD/svg10.dtd">
<svg version="1.0" xmlns="http://www.w3.org/2000/svg"
 width="512.000000pt" height="512.000000pt" viewBox="0 0 512.000000 512.000000"
 preserveAspectRatio="xMidYMid meet">

<g transform="translate(0.000000,512.000000) scale(0.100000,-0.100000)"
fill="#000000" stroke="none">
<path d="M1722 5105 c-724 -92 -1320 -553 -1585 -1225 -97 -244 -131 -431
-131 -715 0 -284 34 -471 131 -715 391 -990 1489 -1482 2493 -1118 121 44 341
159 435 227 l80 58 795 -792 c725 -723 799 -794 844 -809 98 -32 192 -11 261
59 70 69 91 163 59 261 -15 45 -86 119 -810 844 l-793 795 25 30 c14 17 50 71
81 120 359 574 397 1283 103 1893 -102 212 -215 369 -384 537 -286 284 -641
465 -1046 536 -154 27 -408 33 -558 14z m498 -510 c584 -113 1032 -552 1157
-1135 33 -150 37 -405 10 -545 -120 -616 -561 -1060 -1172 -1181 -125 -25
-395 -25 -520 0 -185 37 -355 102 -503 194 -639 397 -872 1215 -536 1884 217
433 622 724 1104 794 118 17 342 11 460 -11z"/>
</g>
</svg>
